<svg xmlns="http://www.w3.org/2000/svg" width="50" height="50" fill="none"><path fill="#986A3E" d="M1.664 26.235h.527a20.28 20.28 0 0 0 15.365-7.517 9.73 9.73 0 0 1 14.883 0 20.28 20.28 0 0 0 15.363 7.517h.529a1.25 1.25 0 1 0 0-2.5h-.529a17.79 17.79 0 0 1-13.453-6.628 12.23 12.23 0 0 0-18.703 0A17.8 17.8 0 0 1 2.19 23.735h-.527a1.25 1.25 0 1 0 0 2.5ZM48.33 36.977a1.25 1.25 0 0 0 .46-2.412l-5.76-2.282a8 8 0 0 0-6.383.237c-2.5 1.37-4.491 1.695-6.145.963-.358-.131-.776-.313-1.223-.5a11.1 11.1 0 0 0-4.237-1.245 10.9 10.9 0 0 0-4.333 1.244c-.447.196-.865.378-1.308.543-1.572.703-3.554.373-6.127-1.032a7.98 7.98 0 0 0-6.317-.201l-5.753 2.273a1.25 1.25 0 0 0 .92 2.323l5.76-2.28a5.45 5.45 0 0 1 4.263.104c3.239 1.775 5.947 2.126 8.197 1.121.402-.146.87-.348 1.37-.566a9.6 9.6 0 0 1 3.333-1.039 10.2 10.2 0 0 1 3.239 1.039c.5.218.968.42 1.286.533 2.334 1.038 5.042.683 8.214-1.053a5.47 5.47 0 0 1 4.333-.139l5.76 2.28q.218.087.452.089ZM34.763 46.5a1.6 1.6 0 1 0-3.2 0 1.6 1.6 0 0 0 3.2 0m-17.929 1.607a1.6 1.6 0 1 0 0-3.2 1.6 1.6 0 0 0 0 3.2m25.448-8.037a1.6 1.6 0 1 0-3.2 0 1.6 1.6 0 0 0 3.2 0m-15.684 0a1.6 1.6 0 1 0-3.2-.007 1.6 1.6 0 0 0 3.2.007m-15.683 0a1.6 1.6 0 1 0-3.2 0 1.6 1.6 0 0 0 3.2 0M23.75 3.144v5.235a1.25 1.25 0 0 0 2.5 0V3.144a1.25 1.25 0 0 0-2.5 0M10.073 7.25a1.25 1.25 0 0 0 0 1.766l3.702 3.702a1.25 1.25 0 0 0 1.372.29 1.25 1.25 0 0 0 .396-2.056L11.835 7.25a1.25 1.25 0 0 0-1.762 0m28.095 0-3.709 3.701a1.25 1.25 0 1 0 1.769 1.767l3.701-3.701a1.25 1.25 0 0 0-1.761-1.767"/><path fill="#986A3E" d="M25.005 29.289a5.712 5.712 0 1 0 0-11.424 5.712 5.712 0 0 0 0 11.424m0-8.922a3.212 3.212 0 1 1 0 6.423 3.212 3.212 0 0 1 0-6.423"/></svg>