<svg xmlns="http://www.w3.org/2000/svg" width="36" height="44" fill="none"><path fill="#986A3E" fill-rule="evenodd" d="M29.299 21.241s-.125 4.423-.847 8.55a.937.937 0 0 0 1.844.323c.745-4.258.875-8.82.875-8.82a.937.937 0 0 0-1.872-.053m-3.822 15.905c-2.281 3.015-4.745 4.512-8.617 4.665-3.43-.134-5.726-1.334-7.803-3.695a.936.936 0 0 0-1.406 1.236c2.44 2.774 5.136 4.182 9.17 4.332h.07c4.53-.168 7.417-1.89 10.08-5.408a.937.937 0 0 0-1.494-1.13M6.003 33.131C4.58 28.7 4.455 21.814 4.455 21.814a.937.937 0 0 0-1.873.036s.148 7.21 1.638 11.854a.937.937 0 0 0 1.783-.573" clip-rule="evenodd"/><path fill="#986A3E" fill-rule="evenodd" d="M31.755 25.618c-.267 1.19-.451 2.156-.71 2.892-.16.45-.32.798-.632.988-.198.12-.45.168-.765.175a.937.937 0 0 0 .046 1.873c1.493-.037 2.294-.646 2.853-1.78.422-.856.67-2.113 1.041-3.763.125-.556.143-.97.094-1.255-.072-.425-.272-.704-.533-.893-.245-.176-.58-.29-1.038-.247-.466.044-1.203.307-2.237.749a.937.937 0 0 0 .737 1.722c.45-.193.829-.35 1.144-.461m-29.803 0c.315.11.695.268 1.144.46a.937.937 0 0 0 .737-1.721c-1.034-.442-1.77-.705-2.237-.749-.457-.043-.793.07-1.037.247-.262.189-.461.468-.534.893-.049.285-.03.699.094 1.255.371 1.65.62 2.907 1.041 3.762.56 1.135 1.36 1.744 2.854 1.78a.937.937 0 0 0 .046-1.872c-.316-.007-.567-.054-.765-.175-.313-.19-.472-.538-.632-.988-.26-.736-.444-1.703-.71-2.892Z" clip-rule="evenodd"/><path fill="#986A3E" fill-rule="evenodd" d="M9.996 4.973C1.712 7.483.335 14.553.854 19.728c.14 1.403.423 2.664.74 3.648a.936.936 0 0 0 1.684.21c.862-1.379 2.333-2.3 4.046-3.025 2.826-1.198 6.3-1.844 9.193-2.73 1.738-.532 3.276-1.155 4.4-1.988.517-.383.953-.81 1.294-1.288 1.012 1.643 2.422 2.642 3.862 3.647 1.69 1.18 3.43 2.37 4.25 5.152a.937.937 0 0 0 1.79.022c1.484-4.617 2.135-15.21-8.403-18.403.043-1.105-.417-2.071-1.203-2.862C21.215.811 18.95.023 16.863.001h-.02c-2.087.022-4.352.81-5.644 2.11-.786.79-1.246 1.757-1.203 2.862m12.44 1.59-.007-.002c8.152 2.06 9.132 8.955 8.486 13.62-1.038-1.577-2.403-2.56-3.77-3.515-1.683-1.174-3.382-2.287-4.124-4.924a.936.936 0 0 0-1.837.217c-.04 1.028-.57 1.778-1.382 2.38-.976.723-2.323 1.24-3.833 1.702-2.951.903-6.492 1.573-9.376 2.796-1.406.596-2.66 1.325-3.65 2.25a17 17 0 0 1-.225-1.546c-.464-4.616.769-11.01 8.56-12.98h-.003a.934.934 0 0 0 .675-1.16c-.283-1.01.26-1.815 1.088-2.396 1.023-.717 2.47-1.116 3.815-1.132 1.344.016 2.792.415 3.815 1.132.828.581.435 1.385.152 2.395-.079.282.915.585 1.092.819a.93.93 0 0 0 .524.343Z" clip-rule="evenodd"/><path fill="#986A3E" fill-rule="evenodd" d="M9.318 25.317c1.036-.681 2.706-.746 3.81-.005a.937.937 0 0 0 1.044-1.554c-1.704-1.145-4.284-1.057-5.883-.005a.937.937 0 0 0 1.03 1.564Zm11.258 0c1.035-.681 2.706-.746 3.81-.005a.937.937 0 0 0 1.044-1.554c-1.704-1.145-4.284-1.057-5.883-.005a.937.937 0 0 0 1.029 1.564M13.552 37.86c2.29 1.083 4.615 1.06 6.64-.02a.937.937 0 0 0-.88-1.653c-1.513.808-3.25.788-4.96-.02a.937.937 0 0 0-.8 1.693M4.05 33.527l-.722 1.953-1.954.723a1.608 1.608 0 0 0 0 3.016l1.954.723.723 1.953a1.607 1.607 0 0 0 3.015 0l.723-1.953 1.953-.723a1.608 1.608 0 0 0 0-3.016L7.79 35.48l-.723-1.953a1.607 1.607 0 0 0-3.015 0Zm1.508 1.322.624 1.685a.94.94 0 0 0 .553.553l1.686.624-1.686.624a.94.94 0 0 0-.553.553l-.624 1.686-.624-1.686a.94.94 0 0 0-.553-.553l-1.686-.624 1.686-.624a.94.94 0 0 0 .553-.553zm22.132-4.782-1.101 2.976-2.977 1.102a1.608 1.608 0 0 0 0 3.015l2.977 1.102 1.102 2.977a1.607 1.607 0 0 0 3.015 0l1.101-2.977 2.977-1.102a1.608 1.608 0 0 0 0-3.015l-2.977-1.102-1.101-2.976a1.607 1.607 0 0 0-3.015 0Zm1.508 1.321 1.003 2.71a.94.94 0 0 0 .553.552l2.708 1.003-2.708 1.002a.94.94 0 0 0-.553.553l-1.003 2.71-1.002-2.71a.94.94 0 0 0-.553-.553l-2.709-1.002 2.709-1.003a.94.94 0 0 0 .553-.553z" clip-rule="evenodd"/></svg>