<svg xmlns="http://www.w3.org/2000/svg" width="38" height="44" fill="none"><path fill="#986A3E" fill-rule="evenodd" d="M29.297 21.241s-.108 3.804-.7 7.65c-.379 2.463-.938 4.952-1.837 6.38-2.681 4.256-5.291 6.356-9.898 6.54-4.625-.182-7.185-2.32-9.92-6.55-2.36-3.645-2.832-13.13-2.832-13.13a.937.937 0 0 0-1.87.102s.602 10.14 3.129 14.046c3.14 4.854 6.14 7.207 11.45 7.405h.07c5.313-.198 8.372-2.52 11.455-7.415.76-1.207 1.34-3.077 1.753-5.11.92-4.522 1.072-9.865 1.072-9.865a.937.937 0 0 0-1.872-.053" clip-rule="evenodd"/><path fill="#986A3E" fill-rule="evenodd" d="M31.755 25.618c-.267 1.19-.452 2.156-.711 2.892-.159.45-.319.798-.632.988-.198.12-.448.168-.764.175a.937.937 0 0 0 .046 1.873c1.493-.037 2.294-.646 2.853-1.78.422-.856.67-2.113 1.04-3.763.126-.556.144-.97.095-1.255-.072-.425-.272-.704-.533-.893-.245-.176-.58-.29-1.038-.247-.466.044-1.203.306-2.237.749a.937.937 0 0 0 .737 1.721c.45-.192.829-.35 1.144-.46m-29.803 0c.315.11.695.268 1.144.46a.937.937 0 0 0 .737-1.721c-1.034-.442-1.77-.705-2.237-.749-.457-.043-.793.07-1.037.247-.262.189-.461.468-.534.893-.049.285-.03.699.095 1.255.37 1.65.619 2.907 1.04 3.762.56 1.135 1.36 1.744 2.854 1.78a.937.937 0 0 0 .046-1.872c-.316-.007-.567-.054-.765-.175-.313-.19-.473-.538-.632-.988-.26-.736-.444-1.703-.71-2.892Z" clip-rule="evenodd"/><path fill="#986A3E" fill-rule="evenodd" d="M9.996 4.973C1.712 7.483.335 14.553.854 19.728a18 18 0 0 0 .74 3.647.937.937 0 0 0 1.684.21c.862-1.378 2.333-2.299 4.046-3.024 2.826-1.198 6.3-1.844 9.193-2.73 1.738-.532 3.276-1.155 4.4-1.988a5.8 5.8 0 0 0 1.294-1.288c.593.965 1.324 1.71 2.119 2.362a.937.937 0 0 0 1.189-1.447c-1.067-.876-1.999-1.953-2.498-3.728a.936.936 0 0 0-1.837.217c-.04 1.028-.57 1.778-1.382 2.38-.976.723-2.323 1.24-3.833 1.702-2.951.903-6.492 1.573-9.376 2.795-1.406.596-2.66 1.326-3.65 2.25a17 17 0 0 1-.225-1.545c-.464-4.616.769-11.01 8.56-12.98 0 0 .971-.165.671-1.16-.282-1.01.261-1.815 1.09-2.396 1.022-.717 2.47-1.116 3.814-1.132 1.344.016 2.792.415 3.815 1.132.828.58.435 1.385.152 2.395-.079.282.915.585 1.092.819a.94.94 0 0 0 .524.343l-.007-.001c1.509.381 3.057 1.456 3.057 1.456a.937.937 0 0 0 1.063-1.541s-1.334-.916-2.84-1.473c.052-1.118-.409-2.094-1.202-2.892C21.215.811 18.95.023 16.863 0h-.02c-2.087.023-4.352.811-5.644 2.111-.786.79-1.246 1.757-1.203 2.862m-.678 20.344c1.036-.681 2.706-.746 3.81-.005a.937.937 0 0 0 1.044-1.554c-1.704-1.145-4.284-1.057-5.883-.005a.937.937 0 0 0 1.03 1.564Zm11.258 0c1.035-.681 2.706-.746 3.81-.005a.937.937 0 0 0 1.044-1.554c-1.704-1.145-4.284-1.057-5.883-.005a.937.937 0 0 0 1.029 1.564M13.552 37.86c2.29 1.083 4.615 1.06 6.64-.02a.937.937 0 0 0-.88-1.653c-1.513.808-3.25.788-4.96-.02a.937.937 0 0 0-.8 1.693M26.25 26.226l1.001.984a.703.703 0 0 0 .984-1.002l-1.002-.985a.703.703 0 0 0-.984 1.003Zm1.998-3.52-1.19.747a.703.703 0 0 0 .747 1.19l1.19-.747a.703.703 0 0 0-.747-1.19" clip-rule="evenodd"/><path fill="#986A3E" fill-rule="evenodd" d="m6.473 25.223-1.002.985a.702.702 0 0 0 .984 1.002l1.002-.985a.703.703 0 0 0-.984-1.002m-1.761-1.327 1.19.746a.702.702 0 0 0 .746-1.189l-1.19-.747a.703.703 0 0 0-.746 1.19m19.455 6.714c.594.025 1.163-.043 1.656-.224a.703.703 0 0 0-.485-1.319c-.33.122-.712.157-1.11.14a.702.702 0 0 0-.061 1.403m-4.33-1.655c.315.3.79.612 1.358.881a.702.702 0 0 0 .602-1.269c-.413-.196-.765-.414-.995-.632a.703.703 0 0 0-.965 1.02m-10.86.252c-.398.017-.78-.018-1.11-.14a.703.703 0 0 0-.485 1.319c.493.18 1.062.25 1.656.224a.703.703 0 0 0-.06-1.403Zm3.426-1.272c-.23.218-.582.436-.996.632a.702.702 0 0 0 .603 1.27c.567-.27 1.043-.583 1.358-.882a.703.703 0 0 0-.965-1.02m4.491-5.907c.505.017 1.01-.002 1.5-.056a.703.703 0 0 0-.15-1.396 9 9 0 0 1-1.305.049.702.702 0 0 0-.045 1.403m-4.364-1.182a7.6 7.6 0 0 0 1.4.648.703.703 0 0 0 .464-1.325 6.3 6.3 0 0 1-1.144-.529.703.703 0 0 0-.72 1.206m8.799.296q.282-.145.536-.312a.703.703 0 0 0-.77-1.174 4 4 0 0 1-.408.236.703.703 0 0 0 .642 1.25M10.022 36.126c-.358.277-.73.53-1.097.757a.703.703 0 0 0 .742 1.193c.405-.252.818-.532 1.214-.838a.702.702 0 0 0-.859-1.112m2.182-2.928c-.085.383-.24.744-.445 1.083a.703.703 0 0 0 1.204.725c.283-.471.495-.974.612-1.506a.703.703 0 0 0-1.371-.302m11.284 4.04c.397.306.809.586 1.215.838a.703.703 0 0 0 .74-1.193c-.366-.228-.738-.48-1.096-.757a.702.702 0 0 0-.859 1.112M20.794 33.5c.117.532.329 1.035.613 1.506a.703.703 0 0 0 1.203-.725 3.6 3.6 0 0 1-.444-1.083.702.702 0 0 0-1.372.302m9.744-11.296s2.58.082 5.097-3.177c1.928-2.497 2.188-6.009 2.188-11.53a.936.936 0 0 0-.879-.935c-3.88-.24-5.704-2.237-5.704-2.237a.936.936 0 0 0-1.404 0s-1.824 1.997-5.704 2.237a.936.936 0 0 0-.878.935c0 5.521.26 9.034 2.187 11.53 2.517 3.259 5.097 3.177 5.097 3.177m0-1.872h-.002c-.003 0-1.786-.084-3.612-2.45-1.63-2.11-1.784-5.057-1.797-9.533 2.738-.347 4.513-1.436 5.411-2.145.898.709 2.673 1.798 5.411 2.145-.012 4.476-.166 7.422-1.796 9.533-1.83 2.37-3.615 2.45-3.615 2.45" clip-rule="evenodd"/><path fill="#986A3E" fill-rule="evenodd" d="m27.237 13.761 1.897 2.005a.937.937 0 0 0 1.354.006l3.313-3.43a.936.936 0 0 0-1.346-1.301l-2.634 2.726-1.225-1.293a.937.937 0 0 0-1.36 1.287Z" clip-rule="evenodd"/></svg>