<svg xmlns="http://www.w3.org/2000/svg" width="45" height="42" fill="none"><path fill="#986A3E" fill-rule="evenodd" d="M.936 11.932a.936.936 0 0 0-.936.936V33.74a7.47 7.47 0 0 0 7.469 7.468H37.08a7.47 7.47 0 0 0 7.469-7.468V12.868a.936.936 0 0 0-.937-.936zm.937 1.873h40.804V33.74a5.596 5.596 0 0 1-5.596 5.596H7.47a5.596 5.596 0 0 1-5.596-5.596z" clip-rule="evenodd"/><path fill="#986A3E" fill-rule="evenodd" d="M4.293 31.281h2.792a2.825 2.825 0 0 0 2.824-2.824 2.825 2.825 0 0 0-2.824-2.823H4.293a2.825 2.825 0 0 0-2.824 2.823 2.825 2.825 0 0 0 2.824 2.824m0-1.873a.951.951 0 0 1 0-1.902h2.792a.952.952 0 0 1 0 1.902zm13.132 1.873h2.793a2.825 2.825 0 0 0 0-5.647h-2.793a2.825 2.825 0 0 0 0 5.647m0-1.873a.952.952 0 0 1 0-1.902h2.793a.952.952 0 0 1 0 1.902zm13.133 1.873h2.792a2.825 2.825 0 0 0 2.824-2.824 2.825 2.825 0 0 0-2.824-2.823h-2.792a2.825 2.825 0 0 0 0 5.647m0-1.873a.951.951 0 0 1 0-1.902h2.792a.952.952 0 0 1 0 1.902zm-19.699 8.351h2.792a2.825 2.825 0 0 0 0-5.648H10.86a2.825 2.825 0 0 0-2.824 2.824 2.825 2.825 0 0 0 2.824 2.824Zm0-1.873a.951.951 0 0 1 0-1.902h2.792a.951.951 0 0 1 0 1.902zm13.133 1.873h2.792a2.825 2.825 0 0 0 0-5.648h-2.792a2.825 2.825 0 0 0 0 5.647Zm0-1.873a.951.951 0 0 1 0-1.902h2.792a.952.952 0 0 1 0 1.902zm13.133 1.873h2.792a2.825 2.825 0 0 0 0-5.648h-2.792a2.825 2.825 0 0 0-2.824 2.824 2.825 2.825 0 0 0 2.824 2.824m0-1.873a.951.951 0 0 1 0-1.902h2.792a.951.951 0 0 1 0 1.902zM.954 18.638c.945-.018 1.358-.1 1.667-.182.35-.093.522-.199 1.6-.199.945 0 1.887.294 2.833.575 1.12.332 2.244.651 3.365.651 1.122 0 2.245-.319 3.367-.651.945-.28 1.887-.575 2.833-.575.945 0 1.888.294 2.833.575 1.121.332 2.245.651 3.366.651s2.245-.319 3.366-.651c.945-.28 1.888-.575 2.833-.575s1.888.294 2.834.575c1.12.332 2.244.651 3.366.651 1.139 0 1.977-.237 2.814-.482.68-.2 1.36-.408 2.287-.408 1.033 0 1.3.11 1.575.21.292.103.591.197 1.266.202a.937.937 0 0 0 .014-1.872c-.47-.004-.612-.084-.828-.158-.347-.12-.808-.254-2.027-.254-1.139 0-1.977.237-2.814.483-.68.2-1.36.407-2.287.407-.946 0-1.889-.294-2.834-.575-1.12-.332-2.245-.651-3.366-.651s-2.244.319-3.366.651c-.945.28-1.888.575-2.833.575s-1.888-.294-2.833-.575c-1.122-.332-2.245-.651-3.366-.651s-2.245.319-3.366.651c-.945.28-1.888.575-2.834.575-.945 0-1.887-.294-2.833-.575-1.12-.332-2.244-.651-3.366-.651-.957 0-1.377.072-1.689.151-.357.09-.528.21-1.612.23a.937.937 0 0 0 .035 1.872m0 3.929c.945-.018 1.358-.1 1.667-.182.35-.093.522-.199 1.6-.199.945 0 1.887.294 2.833.574 1.12.333 2.244.652 3.365.652 1.122 0 2.245-.319 3.367-.652.945-.28 1.887-.574 2.833-.574.945 0 1.888.294 2.833.574 1.121.333 2.245.652 3.366.652s2.245-.319 3.366-.652c.945-.28 1.888-.574 2.833-.574s1.888.294 2.834.574c1.12.333 2.244.652 3.366.652 1.139 0 1.977-.237 2.814-.483.68-.2 1.36-.407 2.287-.407 1.033 0 1.3.11 1.575.209.292.104.591.198 1.266.203a.937.937 0 0 0 .014-1.873c-.47-.003-.612-.083-.828-.158-.347-.12-.808-.254-2.027-.254-1.139 0-1.977.238-2.814.483-.68.2-1.36.407-2.287.407-.946 0-1.889-.293-2.834-.574-1.12-.332-2.245-.651-3.366-.651s-2.244.319-3.366.651c-.945.28-1.888.575-2.833.575s-1.888-.294-2.833-.575c-1.122-.332-2.245-.651-3.366-.651s-2.245.319-3.366.651c-.945.28-1.888.575-2.834.575-.945 0-1.887-.294-2.833-.575-1.12-.332-2.244-.651-3.366-.651-.957 0-1.377.072-1.689.15-.357.091-.528.21-1.612.23a.937.937 0 0 0 .035 1.873M8.137 2.732l7.014 7.108a3.71 3.71 0 0 0 5.279 0l7.014-7.108a.937.937 0 0 0-1.333-1.315l-7.014 7.108a1.836 1.836 0 0 1-2.613 0L9.47 1.417a.937.937 0 0 0-1.333 1.315" clip-rule="evenodd"/><path fill="#986A3E" fill-rule="evenodd" d="M15.875 2.732 22.89 9.84a3.71 3.71 0 0 0 5.28 0l7.013-7.108a.937.937 0 0 0-1.333-1.315l-7.014 7.108a1.836 1.836 0 0 1-2.613 0l-7.014-7.108a.937.937 0 0 0-1.333 1.315Z" clip-rule="evenodd"/><path fill="#986A3E" fill-rule="evenodd" d="m29.178 4.231-.51-3.428a.936.936 0 0 0-.925-.798L24.278 0a.937.937 0 0 0-.003 1.873l2.66.003.391 2.631a.937.937 0 0 0 1.852-.276m7.739 0-.51-3.428a.94.94 0 0 0-.925-.798L32.015 0a.937.937 0 0 0-.003 1.873l2.66.003.391 2.631a.937.937 0 0 0 1.853-.276Z" clip-rule="evenodd"/></svg>